<?xml version="1.0" encoding="UTF-8" standalone="no"?>
<!DOCTYPE svg PUBLIC "-//W3C//DTD SVG 1.1//EN" "http://www.w3.org/Graphics/SVG/1.1/DTD/svg11.dtd">
<svg width="100%" height="100%" viewBox="0 0 1180 724" version="1.1" xmlns="http://www.w3.org/2000/svg" xmlns:xlink="http://www.w3.org/1999/xlink" xml:space="preserve" xmlns:serif="http://www.serif.com/" style="fill-rule:evenodd;clip-rule:evenodd;stroke-linejoin:round;stroke-miterlimit:2;">
    <g transform="matrix(1,0,0,1,-2028.38,-1240.16)">
        <g transform="matrix(0.862443,0,0,0.529492,1971.23,779.427)">
            <rect x="66.267" y="870.138" width="1367.18" height="1367.18" style="fill:rgb(111,140,68);"/>
        </g>
        <g transform="matrix(12.6185,0,0,12.8149,2001.02,1009.52)">
            <path d="M78.201,57.919C74.569,67.68 65.979,70.785 57.67,71.716C52.864,72.254 44.58,72.15 40.379,71.758C40.233,71.744 40.092,71.73 39.957,71.716C31.309,70.806 22.302,67.4 19.013,56.46C19.04,56.544 22.907,58.277 22.907,58.277L22.909,58.275C24.606,59.069 26.487,59.676 28.515,60.071C30.723,60.504 33.021,60.671 35.351,60.555C36.546,60.495 37.714,60.362 38.85,60.157C40.003,59.948 41.12,59.661 42.189,59.301C44.305,58.586 46.139,57.61 47.617,56.393C48.106,55.99 48.547,55.568 48.937,55.129C49.327,55.568 49.768,55.99 50.257,56.393C51.734,57.61 53.569,58.586 55.684,59.301C56.754,59.661 57.871,59.948 59.024,60.157C60.16,60.362 61.327,60.495 62.523,60.555C64.853,60.671 67.151,60.504 69.359,60.071C71.387,59.676 73.267,59.069 74.964,58.275L74.966,58.277L78.678,56.503C78.676,56.511 78.376,57.468 78.201,57.919ZM18.044,42.874C18.72,39.158 20.398,36.002 22.728,33.409C22.243,32.187 20.544,27.134 23.214,20.371C23.214,20.371 27.339,19.067 36.64,25.423C40.622,24.346 44.729,23.795 48.854,23.793C52.979,23.791 57.184,24.364 61.067,25.423C70.369,19.067 74.494,20.371 74.494,20.371C77.164,27.134 75.464,32.187 74.979,33.409C77.394,36.028 79.05,39.22 79.694,42.986L69.211,29.785C69.198,29.769 69.185,29.751 69.173,29.735C68.188,28.488 65.978,27.832 64.223,28.302C62.439,28.778 61.855,30.217 62.928,31.488L69.186,38.779C69.186,38.779 68.043,38.533 67.333,38.445C66.62,38.358 65.187,38.304 64.03,38.356C61.583,38.462 59.191,38.877 56.94,39.598C54.627,40.337 52.597,41.356 50.936,42.624C50.149,43.225 49.466,43.868 48.891,44.545C48.317,43.868 47.634,43.225 46.846,42.624C45.185,41.356 43.156,40.337 40.842,39.598C38.591,38.877 36.2,38.462 33.752,38.356C32.596,38.304 31.163,38.358 30.449,38.445C29.739,38.533 28.596,38.779 28.596,38.779L34.854,31.488C35.928,30.217 35.344,28.778 33.56,28.302C31.804,27.832 29.595,28.488 28.61,29.735C28.597,29.751 28.584,29.769 28.572,29.785L18.044,42.874Z" style="fill:white;"/>
        </g>
        <g transform="matrix(12.6185,0,0,12.8149,2001.02,1009.52)">
            <path d="M40.752,53.667C42.482,52.106 43.038,50.17 42.273,48.256C41.506,46.339 39.534,44.739 36.789,43.774C35.45,43.302 34.014,43.016 32.565,42.914C31.143,42.815 29.707,42.894 28.33,43.152C26.983,43.401 25.768,43.811 24.734,44.344C23.717,44.867 22.869,45.515 22.231,46.26C20.985,47.719 20.673,49.407 21.328,51.042C21.985,52.679 23.549,54.116 25.78,55.113C26.92,55.62 28.174,55.987 29.486,56.201C30.822,56.42 32.222,56.479 33.627,56.365C35.059,56.248 36.407,55.956 37.609,55.507C38.835,55.049 39.907,54.43 40.752,53.667Z" style="fill:white;"/>
        </g>
        <g transform="matrix(12.6185,0,0,12.8149,2001.02,1009.52)">
            <path d="M57.03,53.667C55.301,52.106 54.744,50.17 55.509,48.256C56.277,46.339 58.249,44.739 60.994,43.774C62.332,43.302 63.769,43.016 65.217,42.914C66.64,42.815 68.076,42.894 69.453,43.152C70.799,43.401 72.015,43.811 73.049,44.344C74.066,44.867 74.914,45.515 75.552,46.26C76.798,47.719 77.11,49.407 76.454,51.042C75.798,52.679 74.233,54.116 72.002,55.113C70.863,55.62 69.609,55.987 68.297,56.201C66.96,56.42 65.561,56.479 64.155,56.365C62.724,56.248 61.376,55.956 60.173,55.507C58.947,55.049 57.876,54.43 57.03,53.667Z" style="fill:white;"/>
        </g>
        <g transform="matrix(2.8081,7.06618,12.1128,-1.6381,5732.64,-670.062)">
            <path d="M259.323,-348.383L245.622,-358.903C245.606,-358.915 245.593,-358.928 245.576,-358.939C244.414,-359.831 242.46,-359.828 241.182,-358.934C239.89,-358.03 239.742,-356.535 240.892,-355.592L240.887,-355.587L248.274,-349.58L225.759,-349.556L225.729,-349.556C223.868,-349.554 222.079,-348.333 221.725,-346.79C221.361,-345.218 222.625,-343.914 224.56,-343.907L224.557,-343.9L235.719,-343.922C237.714,-344.609 239.83,-345.218 242.071,-345.738C248.649,-347.263 254.36,-348.101 259.323,-348.383Z" style="fill:white;"/>
        </g>
        <g transform="matrix(0.360084,0,0,0.869853,1945.49,770.739)">
            <path d="M1291.71,908.656C1343.83,929.395 1382.89,952.614 1382.89,1006.76C1382.89,1060.9 1335.86,1087.36 1291.71,1104.86C1255.41,1085.54 1203.6,1061.54 1203.6,1007.39C1203.6,953.25 1241.68,928.615 1291.71,908.656Z" style="fill:rgb(111,140,68);"/>
        </g>
        <g transform="matrix(-2.8081,7.06618,-12.1128,-1.6381,-496.732,-670.062)">
            <path d="M259.417,-348.311L245.622,-358.903C245.606,-358.915 245.593,-358.928 245.576,-358.939C244.414,-359.831 242.46,-359.828 241.182,-358.934C239.89,-358.03 239.742,-356.535 240.892,-355.592L240.887,-355.587L248.274,-349.58L225.759,-349.556L225.729,-349.556C223.868,-349.554 222.079,-348.333 221.725,-346.79C221.361,-345.218 222.625,-343.914 224.56,-343.907L224.557,-343.9L235.921,-343.922C237.862,-344.577 239.917,-345.161 242.088,-345.664C248.707,-347.198 254.441,-348.036 259.417,-348.311Z" style="fill:white;"/>
        </g>
        <g transform="matrix(-0.360084,0,0,0.869853,3290.42,770.739)">
            <path d="M1291.71,908.656C1343.83,929.395 1382.89,952.614 1382.89,1006.76C1382.89,1060.9 1335.86,1087.36 1291.71,1104.86C1255.41,1085.54 1203.6,1061.54 1203.6,1007.39C1203.6,953.25 1241.68,928.615 1291.71,908.656Z" style="fill:rgb(111,140,68);"/>
        </g>
    </g>
</svg>
